<?xml version="1.0" standalone="no"?><!DOCTYPE svg PUBLIC "-//W3C//DTD SVG 1.1//EN" "http://www.w3.org/Graphics/SVG/1.1/DTD/svg11.dtd"><svg t="1684221121250" class="icon" viewBox="0 0 1024 1024" version="1.1" xmlns="http://www.w3.org/2000/svg" p-id="3013" xmlns:xlink="http://www.w3.org/1999/xlink" width="200" height="200"><path d="M516.64 754.08a247.04 247.04 0 1 0-247.04-247.04 247.04 247.04 0 0 0 247.04 247.04z m205.76 75.84a16 16 0 0 0-21.6-6.72h-1.12a16 16 0 0 0-7.84 21.12v1.76l16 28.48a16.96 16.96 0 0 0 22.72 6.08 16 16 0 0 0 8.16-21.28 3.36 3.36 0 0 0 0-0.96z m-205.76 43.04a16 16 0 0 0-16 16v34.08a16 16 0 0 0 16 16 16 16 0 0 0 16-16v-33.6a16 16 0 0 0-16-16z m368-172.8l-28.48-16a16 16 0 0 0-22.08 4.96v1.12a16 16 0 0 0 5.12 22.08h0.96l28.48 16a16 16 0 0 0 22.08-4.96v-1.12a16 16 0 0 0-6.08-22.08z m48-209.12h-33.6a16 16 0 0 0-16 16 16 16 0 0 0 16 16h33.6a16 16 0 0 0 16-16 16 16 0 0 0-16-16zM333.92 824a16 16 0 0 0-22.08 4.96v1.12l-16 28.48a16 16 0 0 0 4.48 21.44h0.96a16.8 16.8 0 0 0 22.24-6.24l16-28.48a16 16 0 0 0-4.8-22.24z m365.44-633.92a16 16 0 0 0 22.08-4.96v-1.12l16-28.48a16 16 0 0 0-4.96-22.08h-1.12a16.8 16.8 0 0 0-22.24 6.24l-16 28.48a16 16 0 0 0 4.96 22.08z m134.24 134.24a16 16 0 0 0 21.76 6.72h0.96l28.48-16a16 16 0 0 0 6.08-22.72 16 16 0 0 0-21.28-7.36h-0.96l-28.48 16a16 16 0 0 0-6.72 21.6 2.56 2.56 0 0 1 0 1.12zM516.64 141.12a16 16 0 0 0 16-16V91.04a16 16 0 0 0-16-16 16 16 0 0 0-16 16v33.6a16 16 0 0 0 16 16zM150.72 507.04a16 16 0 0 0-16-16H100.64a16 16 0 0 0-16 16 16 16 0 0 0 16 16h33.6a16 16 0 0 0 16-16z m160-323.04a16 16 0 0 0 21.76 6.72h0.96a16 16 0 0 0 8.16-21.28l-0.96-1.44-17.12-28.96a16 16 0 0 0-22.72-6.08 16 16 0 0 0-6.56 21.6z m-117.12 117.12l-28.48-16a16 16 0 0 0-22.08 4.96v1.12a16.96 16.96 0 0 0 6.24 22.72l28.48 16a16 16 0 0 0 22.08-4.96v-1.12a16 16 0 0 0-5.12-22.08h-0.96z m5.92 388.48a16 16 0 0 0-21.44-7.2h-1.12l-28.32 17.76a16.8 16.8 0 0 0-6.08 22.72 16 16 0 0 0 21.76 6.72h0.96l28.48-16a16 16 0 0 0 6.72-21.6 2.56 2.56 0 0 0 0-1.12z m522.72 140.16a16 16 0 0 0-21.6-6.72h-1.12a16 16 0 0 0-7.84 21.12l0.96 1.92 16 28.48a16.96 16.96 0 0 0 22.72 6.08 16 16 0 0 0 8.16-21.28 3.36 3.36 0 0 0 0-0.96z m-205.6 43.2a16 16 0 0 0-16 16v34.08a16 16 0 0 0 16 16 16 16 0 0 0 16-16v-33.6a16 16 0 0 0-16-16z m368-172.8l-28.48-16a16 16 0 0 0-22.08 4.96v1.12a16 16 0 0 0 5.12 22.08h0.96l28.48 16a16 16 0 0 0 22.08-4.96v-1.12a16 16 0 0 0-6.08-22.08z m48-209.12h-33.6a16 16 0 0 0-16 16 16 16 0 0 0 16 16h33.6a16 16 0 0 0 16-16 16 16 0 0 0-16-16zM333.92 824a16 16 0 0 0-22.08 4.96v1.12l-16 28.48a16 16 0 0 0 4.48 21.44h0.96a16.8 16.8 0 0 0 22.24-6.24l16-28.48a16 16 0 0 0-4.8-22.24z m365.44-633.92a16 16 0 0 0 22.08-4.96v-1.12l16-28.48a16 16 0 0 0-4.96-22.08h-1.12a16.8 16.8 0 0 0-22.24 6.24l-16 28.48a16 16 0 0 0 4.96 22.08z m134.24 134.24a16 16 0 0 0 21.76 6.72h0.96l28.48-16a16 16 0 0 0 6.08-22.72 16 16 0 0 0-21.28-7.36h-0.96l-28.48 16a16 16 0 0 0-6.72 21.6 2.56 2.56 0 0 1 0 1.12zM516.64 141.12a16 16 0 0 0 16-16V91.04a16 16 0 0 0-16-16 16 16 0 0 0-16 16v33.6a16 16 0 0 0 16 16zM150.72 507.04a16 16 0 0 0-16-16H100.64a16 16 0 0 0-16 16 16 16 0 0 0 16 16h33.6a16 16 0 0 0 16-16z m160-323.04a16 16 0 0 0 21.76 6.72h0.96a16 16 0 0 0 8.16-21.28l-0.96-1.44-17.12-28.96a16 16 0 0 0-22.72-6.08 16 16 0 0 0-6.56 21.6z m-117.12 117.12l-28.48-16a16 16 0 0 0-22.08 4.96v1.12a16.96 16.96 0 0 0 6.24 22.72l28.48 16a16 16 0 0 0 22.08-4.96v-1.12a16 16 0 0 0-5.12-22.08h-0.96z m5.92 388.48a16 16 0 0 0-21.44-7.2h-1.12l-28.32 17.76a16.8 16.8 0 0 0-6.08 22.72 16 16 0 0 0 21.76 6.72h0.96l28.48-16a16 16 0 0 0 6.72-21.6 2.56 2.56 0 0 0 0-1.12z" p-id="3014"></path></svg>